# xmcd CD database file
#
# Track frame offsets:
#	150
#	13881
#	26138
#	37839
#	48791
#	62956
#	77719
#	93924
#	105457
#	117050
#	128975
#	143034
#	154965
#	166943
#	180446
#	196859
#	208904
#	223286
#
# Disc length: 3120 seconds
#
# Revision: 1
# Processed by: cddbd v1.5.1PL0 Copyright (c) Steve Scherf et al.
# Submitted via: CDex 1.50beta9
#
DISCID=f60c2e12
DTITLE=Anita O'Day - Bolero at the Savoy - CD 4
DYEAR=1900
DGENRE=Jazz
TTITLE0=I Apologize
TTITLE1=Black Moonlight
TTITLE2=Lovesick Blues
TTITLE3=Lover,Come Back to me
TTITLE4=Lullaby of the Leaves
TTITLE5=Rock and Roll Blues
TTITLE6=Love For Sale
TTITLE7=No Soap, no Hope Blues
TTITLE8=Speak Low
TTITLE9=The Lady is a Tramp
TTITLE10=Strawberry Moon
TTITLE11=Pagan Love Sona
TTITLE12=Aint this a Wonderful Day
TTITLE13=Somebodys Crying
TTITLE14=Vaya con Dios
TTITLE15=Just one of Those Things
TTITLE16=From this Moment on
TTITLE17=Youre the Top
EXTD=
EXTT0=
EXTT1=
EXTT2=
EXTT3=
EXTT4=
EXTT5=
EXTT6=
EXTT7=
EXTT8=
EXTT9=
EXTT10=
EXTT11=
EXTT12=
EXTT13=
EXTT14=
EXTT15=
EXTT16=
EXTT17=
PLAYORDER=
